<?xml version="1.0" encoding="utf-8"?>
<!-- Generator: Adobe Illustrator 18.1.0, SVG Export Plug-In . SVG Version: 6.00 Build 0)  -->
<svg version="1.1" id="Calque_1" xmlns="http://www.w3.org/2000/svg" xmlns:xlink="http://www.w3.org/1999/xlink" x="0px" y="0px"
	 viewBox="0 0 960 271" enable-background="new 0 0 960 271" xml:space="preserve">
<path fill="#396AAA" d="M523.2,105.9V88.4h-50.8v95.2h19v-41.2H528v-19h-36.5v-17.4H523.2z M436,105.9V88.4h-50.8v95.2h58.7v-17.4
	h-39.6v-23.8h36.5v-19h-36.5v-17.4H436z M356.9,125.7c0-20.6-17.2-37.3-39.6-37.3h-33.6v95.2h20.6v-17.4h9.6l15.6,17.4H356
	l-20.6-22.1C348.7,155.4,356.9,142.7,356.9,125.7z M312.2,148.7h-7.8v-42.8H316c13.6,0,20.5,9.5,20.5,21
	C336.5,141,328,148.7,312.2,148.7z M895.9,105.9V88.4h-50.8v95.2h60.3v-17.4h-39.6v-23.8h34.9v-19h-34.9v-17.4H895.9z M555,88.4
	v95.2h20.6V88.4H555z M729.4,88.4v95.2H750v-41.2h42.8v41.2h20.6V88.4h-20.6v34.9H750V88.4H729.4z M652.3,105.8
	c9.9,0,19.6,4.9,26.5,15.1l15.5-10.9c-8.6-13.8-24.3-23-42.2-23c-27.2,0-48.9,22-48.9,49s21.8,48.5,49.1,48.5
	c25.4,0,46.4-18.4,49.2-43.7h-20.1c-2.7,14.3-14.7,24.8-29.1,24.8c-16,0-28.7-13.2-28.7-29.8C623.6,119.1,636.3,105.8,652.3,105.8z
	 M49.7,182.5c5.6-2.3,11.1-4.7,16.7-7c9.4-3.8,18.7-7.7,28.6-10.1c6.9-1.7,13.9-2.2,21-0.5c7.6,1.9,13.6,6.2,19.3,11.4
	c0.3,0.3,0.9,0.6,0.9,1.1v-1.6c0-49.2,0.2-98.4,0.3-147.6c0-2.9,0.2-2.4-1.8-4.2c-6.7-6.1-14.1-10.3-23.2-11.7
	c-0.4-0.1-0.6-0.1-1-0.1l-12.6,0c-0.6,0.1-1.6,0.2-2.2,0.2c-5,0.8-10.1,1.4-15.1,2.4c-10.4,2-20.7,3.7-31.3,3.3
	c-1.4-0.1-1.5,0.6-1.5,1.7c0,53.8,0,107.6,0,161.4C47.9,183,48.1,183.2,49.7,182.5z M146.7,177.3c1.6-1.5,3.1-2.9,4.6-4.3
	c6.8-5.8,14.6-9.2,23.7-9.3c7.4-0.1,14.4,1.6,21.4,3.8c13.6,4.2,26.7,9.8,39.8,15.2c1.1,0.4,1.4,0.1,1.4-0.8c0-0.3,0.1-0.5,0.1-0.8
	V19.8c0-1.9-0.1-2-2-1.9c-7.5,0.2-15-0.4-22.4-1.7c-8.4-1.4-16.9-2.4-25.4-3.7c-0.7-0.1-1.4-0.2-2.1-0.2h-13.1c-0.5,0-1,0.1-1.6,0.1
	c-9.5,1.4-17.2,5.9-23.7,12.7c-0.9,0.8-0.9,1.3-0.8,2.1c0,49.7,0,99.3,0,148.9C146.7,176.5,146.7,176.8,146.7,177.3z M30.6,191.5
	c0.7,3,3.2,4.8,6.6,4.8c25.8,0,51.6,0,77.4,0c0.6,0,1.2,0.1,1.9,0.1c-0.1,0.6-0.2,1.1-0.2,1.6c-0.2,2.4,0.6,4.4,2.7,5.6
	c1.2,0.7,2.7,1.1,4.1,1.1c13.1,0.1,26.2,0,39.3,0c2.1,0,4.3-0.1,5.9-3.4c-0.2-1.6,0.1-3.3,0.8-4.7c0,0,0-0.1,0-0.1
	c0.7,0,1.3-0.1,2-0.1c25.8,0,51.6,0,77.4,0c4,0,6.7-2.7,6.7-6.7c0-55,0-109.9,0-164.9c0-3.7-1.9-6.2-5.5-6.7c-2.6,0.1-2.4,0-2.5,2.1
	l0,164.3c-1.3,0-2.4,1.1-2.4,2.4H40.7c-1.9,0-2.7,0.6-2.7-1.4V20.1c0-1.9-2-2.1-2-2.1s-5.6-0.4-5.7,6.5c0,55,0.1,110.1,0.1,165.1
	C30.3,190.2,30.4,190.9,30.6,191.5z M274.2,12.3V25H934V12.3H274.2z M30,259.7h904V247H30V259.7z"/>
</svg>
